<?xml version="1.0" encoding="utf-8"?>
<!-- Generator: Adobe Illustrator 27.2.0, SVG Export Plug-In . SVG Version: 6.00 Build 0)  -->
<svg version="1.1" id="Capa_1" xmlns="http://www.w3.org/2000/svg" xmlns:xlink="http://www.w3.org/1999/xlink" x="0px" y="0px"
	 viewBox="0 0 32 32" style="enable-background:new 0 0 32 32;" xml:space="preserve">
<style type="text/css">
	.st0{fill:#73C756;}
	.st1{fill:none;}
	.st2{fill:#FFFFFF;}
</style>
<g>
	<path class="st0" d="M31,13.79c-0.41-3.25-1.82-6.06-4.13-8.38c-3.78-3.8-8.39-5.22-13.64-4.33C9.6,1.7,6.6,3.56,4.26,6.43
		c-2.02,2.48-3.16,5.32-3.38,8.51c-0.23,3.35,0.62,6.44,2.39,9.29c0.1,0.17,0.13,0.44,0.09,0.63c-0.31,1.22-0.65,2.44-0.97,3.66
		c-0.13,0.5-0.25,1.01-0.39,1.6C2.29,30.04,2.5,30,2.7,29.94c1.51-0.4,3.01-0.8,4.51-1.21c0.3-0.08,0.53-0.03,0.79,0.13
		c1.62,0.99,3.36,1.69,5.23,2.03c4.02,0.73,7.8,0.05,11.15-2.29C29.54,25.03,31.8,20.05,31,13.79z"/>
	<g>
		<path class="st1" d="M18.27,11.18h-5.43c-0.28,0-0.5,0.22-0.5,0.5v0.01h6.43v-0.01C18.77,11.41,18.55,11.18,18.27,11.18z"/>
		<path class="st1" d="M12.34,14.61c0,0.28,0.22,0.5,0.5,0.5h5.43c0.28,0,0.5-0.22,0.5-0.5v-1.93h-6.43V14.61z M17.05,13.6
			c0.12,0,0.23,0.04,0.32,0.11c0.09-0.07,0.2-0.11,0.32-0.11c0.29,0,0.52,0.23,0.52,0.52c0,0.29-0.23,0.52-0.52,0.52
			c-0.12,0-0.23-0.04-0.32-0.11c-0.09,0.07-0.2,0.11-0.32,0.11c-0.29,0-0.52-0.23-0.52-0.52C16.52,13.83,16.76,13.6,17.05,13.6z
			 M13.03,13.33h3.01c0.1,0,0.19,0.09,0.19,0.19s-0.09,0.19-0.19,0.19h-3.01c-0.1,0-0.19-0.09-0.19-0.19S12.92,13.33,13.03,13.33z
			 M13.03,14.05h1.52c0.1,0,0.19,0.09,0.19,0.19s-0.09,0.19-0.19,0.19h-1.52c-0.1,0-0.19-0.09-0.19-0.19S12.92,14.05,13.03,14.05z"
			/>
		<path class="st1" d="M20.39,14.09h-0.74v-0.58h0.74c0.12,0,0.23-0.06,0.3-0.15h-0.14v-0.43h0.15c-0.06-0.1-0.18-0.17-0.31-0.17
			h-0.74V12.2h0.74c0.12,0,0.23-0.06,0.3-0.15h-0.25v-0.43h0.27c-0.06-0.1-0.18-0.18-0.31-0.18h-0.76v0.05
			c-0.09-0.67-0.67-1.19-1.36-1.19h-0.36V9.57c0-0.12-0.06-0.22-0.15-0.29v0.18h-0.43V9.25c-0.11,0.06-0.18,0.18-0.18,0.31v0.74
			h-0.58V9.57c0-0.11-0.05-0.21-0.13-0.28v0.17h-0.43V9.25c-0.11,0.06-0.19,0.18-0.19,0.32v0.74h-0.56V9.57
			c0-0.14-0.08-0.27-0.2-0.33v0.22h-0.43V9.29c-0.08,0.07-0.13,0.16-0.13,0.27v0.74h-0.56V9.57c0-0.13-0.07-0.25-0.18-0.31v0.2
			h-0.43V9.27c-0.09,0.07-0.15,0.17-0.15,0.29v0.74h-0.36c-0.68,0-1.25,0.5-1.36,1.14h-0.74c-0.13,0-0.25,0.07-0.31,0.18h0.23v0.43
			h-0.21c0.07,0.09,0.17,0.15,0.3,0.15h0.72v0.56h-0.72c-0.13,0-0.24,0.07-0.31,0.17h0.23v0.43h-0.21c0.07,0.09,0.17,0.15,0.3,0.15
			h0.72v0.58h-0.72c-0.11,0-0.21,0.05-0.28,0.13h0.2v0.43h-0.24c0.06,0.12,0.18,0.2,0.32,0.2h0.74c0.11,0.65,0.68,1.14,1.36,1.14
			h0.36v0.74c0,0.12,0.06,0.22,0.15,0.29v-0.06h0.43v0.09c0.11-0.06,0.18-0.18,0.18-0.31v-0.74h0.56v0.74
			c0,0.13,0.07,0.25,0.18,0.31V16.7h0.43v0.31c0.09-0.07,0.14-0.17,0.14-0.29v-0.74h0.56v0.74c0,0.14,0.08,0.26,0.19,0.32v-0.17
			h0.43V17c0.08-0.07,0.13-0.17,0.13-0.28v-0.74h0.58v0.74c0,0.13,0.07,0.24,0.17,0.31v-0.08h0.43v0.08c0.1-0.07,0.16-0.18,0.16-0.3
			v-0.74h0.36c0.7,0,1.27-0.52,1.36-1.19v0.05h0.76c0.12,0,0.23-0.06,0.29-0.15h-0.1v-0.43h0.12
			C20.64,14.16,20.52,14.09,20.39,14.09z M19.15,14.61c0,0.48-0.39,0.88-0.88,0.88h-5.43c-0.48,0-0.88-0.39-0.88-0.88v-2.93
			c0-0.48,0.39-0.88,0.88-0.88h5.43c0.48,0,0.88,0.39,0.88,0.88V14.61z"/>
		<path class="st2" d="M16.44,7.87v1.41c0.08,0.07,0.13,0.17,0.13,0.28v0.74h0.58V9.57c0-0.13,0.07-0.25,0.18-0.31V8.44l1.86-1.86
			c-0.59-0.3-1.23-0.52-1.9-0.66v1.1L16.44,7.87z"/>
		<path class="st2" d="M10.43,11.62c0.06-0.1,0.18-0.18,0.31-0.18h0.74c0.11-0.65,0.68-1.14,1.36-1.14h0.36V9.57
			c0-0.12,0.06-0.23,0.15-0.29V7.7L12.2,6.55c-1.76,0.86-3.15,2.34-3.88,4.17l0.91,0.91H10.43z"/>
		<path class="st2" d="M13.78,9.25c0.11,0.06,0.18,0.18,0.18,0.31v0.74h0.56V9.57c0-0.11,0.05-0.21,0.13-0.27V6.78l-0.81-0.81
			C13.41,6.07,13,6.2,12.62,6.36l1.16,1.16V9.25z"/>
		<path class="st2" d="M15.06,9.24c0.12,0.06,0.2,0.18,0.2,0.33v0.74h0.56V9.57c0-0.14,0.08-0.26,0.19-0.32V7.7l0.85-0.85v-1
			c-0.39-0.06-0.79-0.09-1.2-0.09c-0.46,0-0.91,0.04-1.35,0.11l0.74,0.74V9.24z"/>
		<path class="st2" d="M10.74,12.76h0.72V12.2h-0.72c-0.12,0-0.23-0.06-0.3-0.15H9.05l-0.9-0.9c-0.19,0.57-0.32,1.16-0.37,1.78h2.65
			C10.5,12.83,10.61,12.76,10.74,12.76z"/>
		<path class="st2" d="M20.69,12.05c-0.07,0.09-0.17,0.15-0.3,0.15h-0.74v0.56h0.74c0.13,0,0.25,0.07,0.31,0.17h1.51l0.63-0.63h0.63
			c-0.11-0.62-0.29-1.22-0.54-1.79l-1.54,1.54H20.69z"/>
		<path class="st2" d="M13.35,18.41v-1.4c-0.09-0.07-0.15-0.17-0.15-0.29v-0.74h-0.36c-0.68,0-1.25-0.5-1.36-1.14h-0.74
			c-0.14,0-0.26-0.08-0.32-0.2H9.95l-1.2,1.2h-0.7c0.01,0.04,0.02,0.07,0.03,0.11l0,0c0,0,0,0,0,0c0.15,0.5,0.35,0.98,0.59,1.43
			c0.39,0.79,0.7,1.58,0.92,2.34h2.43L13.35,18.41z"/>
		<path class="st2" d="M17.76,9.28c0.09,0.07,0.15,0.17,0.15,0.29v0.74h0.36c0.7,0,1.27,0.52,1.36,1.19v-0.05h0.76
			c0.13,0,0.25,0.07,0.31,0.18h0.51l1.53-1.53c-0.7-1.39-1.8-2.54-3.15-3.31l-1.83,1.83V9.28z"/>
		<path class="st2" d="M9.78,14.22h0.69c0.07-0.08,0.17-0.13,0.28-0.13h0.72v-0.58h-0.72c-0.12,0-0.23-0.06-0.3-0.15H7.76
			c0,0.1-0.01,0.21-0.01,0.31c0,0.6,0.07,1.18,0.19,1.75h0.64L9.78,14.22z"/>
		<path class="st2" d="M22.38,13.36h-1.7c-0.07,0.09-0.17,0.15-0.3,0.15h-0.74v0.58h0.74c0.13,0,0.25,0.07,0.31,0.18h1.28l2.05,2.05
			h0.79l-1.26-2.01c0.02-0.21,0.03-0.42,0.03-0.63c0-0.32-0.02-0.63-0.06-0.94h-0.52L22.38,13.36z"/>
		<path class="st2" d="M18.27,10.8h-5.43c-0.48,0-0.88,0.39-0.88,0.88v2.93c0,0.48,0.39,0.88,0.88,0.88h5.43
			c0.48,0,0.88-0.39,0.88-0.88v-2.93C19.15,11.2,18.76,10.8,18.27,10.8z M18.77,14.61c0,0.28-0.22,0.5-0.5,0.5h-5.43
			c-0.28,0-0.5-0.22-0.5-0.5v-1.93h6.43V14.61z M18.77,11.7h-6.43v-0.01c0-0.28,0.22-0.5,0.5-0.5h5.43c0.28,0,0.5,0.22,0.5,0.5V11.7
			z"/>
		<path class="st2" d="M17.05,14.64c0.12,0,0.23-0.04,0.32-0.11c0.09,0.07,0.2,0.11,0.32,0.11c0.29,0,0.52-0.23,0.52-0.52
			c0-0.29-0.23-0.52-0.52-0.52c-0.12,0-0.23,0.04-0.32,0.11c-0.09-0.07-0.2-0.11-0.32-0.11c-0.29,0-0.52,0.23-0.52,0.52
			C16.52,14.4,16.76,14.64,17.05,14.64z"/>
		<path class="st2" d="M13.03,13.71h3.01c0.1,0,0.19-0.09,0.19-0.19s-0.09-0.19-0.19-0.19h-3.01c-0.1,0-0.19,0.09-0.19,0.19
			S12.92,13.71,13.03,13.71z"/>
		<path class="st2" d="M13.03,14.43h1.52c0.1,0,0.19-0.09,0.19-0.19s-0.09-0.19-0.19-0.19h-1.52c-0.1,0-0.19,0.09-0.19,0.19
			S12.92,14.43,13.03,14.43z"/>
		<path class="st2" d="M11.76,5.5H9.67C9.58,5.24,9.33,5.04,9.03,5.04c-0.38,0-0.68,0.3-0.68,0.68c0,0.38,0.3,0.68,0.68,0.68
			c0.3,0,0.56-0.2,0.65-0.47h1.91l0.62,0.62c0.14-0.07,0.28-0.13,0.42-0.19L11.76,5.5z"/>
		<path class="st2" d="M14.32,5.86l-0.44-0.44C13.96,5.31,14,5.18,14,5.04c0-0.38-0.3-0.68-0.68-0.68s-0.68,0.3-0.68,0.68
			c0,0.38,0.3,0.68,0.68,0.68c0.08,0,0.15-0.01,0.22-0.04l0.28,0.28C13.99,5.93,14.15,5.89,14.32,5.86z"/>
		<path class="st2" d="M17.76,3.98c0-0.38-0.3-0.68-0.68-0.68c-0.38,0-0.68,0.3-0.68,0.68c0,0.3,0.2,0.56,0.47,0.65v1.22
			c0.14,0.02,0.29,0.05,0.43,0.08V4.62C17.57,4.53,17.76,4.28,17.76,3.98z"/>
		<path class="st2" d="M20.51,4.82c-0.38,0-0.68,0.3-0.68,0.68c0,0.13,0.03,0.24,0.09,0.34l-0.73,0.73
			c0.13,0.07,0.27,0.14,0.39,0.21l0.65-0.65c0.08,0.03,0.17,0.05,0.27,0.05c0.38,0,0.68-0.3,0.68-0.68
			C21.19,5.13,20.88,4.82,20.51,4.82z"/>
		<path class="st2" d="M23.83,8.56c-0.38,0-0.68,0.3-0.68,0.68c0,0.13,0.04,0.25,0.1,0.35l-0.5,0.5c0.07,0.13,0.13,0.27,0.19,0.41
			l0.64-0.64c0.08,0.03,0.16,0.05,0.25,0.05c0.38,0,0.68-0.3,0.68-0.68C24.51,8.87,24.2,8.56,23.83,8.56z"/>
		<path class="st2" d="M25.72,11.83c-0.3,0-0.56,0.2-0.65,0.47h-1.6c0.02,0.14,0.05,0.28,0.06,0.43h1.54
			c0.09,0.27,0.34,0.47,0.65,0.47c0.38,0,0.68-0.3,0.68-0.68C26.4,12.14,26.1,11.83,25.72,11.83z"/>
		<path class="st2" d="M26.69,15.85c-0.3,0-0.56,0.2-0.65,0.47h-1.22l0.27,0.43h0.95c0.09,0.27,0.34,0.47,0.65,0.47
			c0.38,0,0.68-0.3,0.68-0.68S27.07,15.85,26.69,15.85z"/>
		<path class="st2" d="M9.72,20.15c-0.04-0.14-0.08-0.28-0.12-0.43H9.05c-0.09-0.27-0.34-0.47-0.65-0.47c-0.38,0-0.68,0.3-0.68,0.68
			s0.3,0.68,0.68,0.68c0.3,0,0.56-0.2,0.65-0.47H9.72z"/>
		<path class="st2" d="M25.72,17.74l-0.63-1h-1.24l-2.05-2.05h-1.13c-0.07,0.09-0.17,0.15-0.29,0.15h-0.76V14.8
			c-0.09,0.67-0.67,1.19-1.36,1.19h-0.36v0.74c0,0.13-0.06,0.24-0.16,0.3v0.47l1.61,1.61v1.77c0.27,0.09,0.46,0.34,0.46,0.64
			c0,0.38-0.3,0.68-0.68,0.68s-0.68-0.3-0.68-0.68c0-0.3,0.2-0.56,0.47-0.65v-1.59l-1.61-1.61v-0.65c-0.1-0.07-0.17-0.18-0.17-0.31
			v-0.74h-0.58v0.74c0,0.11-0.05,0.21-0.13,0.28v1.09l1.22,1.22c0.09-0.05,0.19-0.07,0.3-0.07c0.38,0,0.68,0.3,0.68,0.68
			c0,0.38-0.3,0.68-0.68,0.68c-0.38,0-0.68-0.3-0.68-0.68c0-0.11,0.03-0.22,0.07-0.31l-1.34-1.34v-1.23
			c-0.11-0.06-0.19-0.18-0.19-0.32v-0.74h-0.56v0.74c0,0.12-0.06,0.22-0.14,0.29v0.5l0.64,0.64v1.19c0.28,0.09,0.48,0.34,0.48,0.65
			c0,0.38-0.3,0.68-0.68,0.68c-0.38,0-0.68-0.3-0.68-0.68c0-0.3,0.19-0.55,0.45-0.64v-1.02l-0.64-0.64v-0.65
			c-0.11-0.06-0.18-0.18-0.18-0.31v-0.74h-0.56v0.74c0,0.13-0.07,0.25-0.18,0.31v1.55l-1.57,1.57H9.72c0.49,1.76,0.58,3.25,0.6,3.83
			C10.35,25.05,10,26.7,10,26.7h9.95c-0.09-1.16,0.22-1.72,0.22-1.72s-2,0.04-3.62-0.86c-1.18-0.65-1.73-1.95-1.94-2.6
			c-0.08-0.24-0.11-0.4-0.11-0.4h0.47l0.06,0.25c0.02,0.07,0.04,0.14,0.07,0.2c0.36,1.06,0.8,1.54,1.78,2.19
			c1.04,0.69,4.22,1.03,5.62,0.86c1.4-0.17,1.51-1.65,1.55-1.93c0.04-0.28,0.09-3.5,0.09-3.5c0.48-0.04,1.03-0.12,1.03-0.12
			C26.46,18.72,25.72,17.74,25.72,17.74z"/>
		<path class="st2" d="M8.05,15.84c-0.04-0.14-0.08-0.28-0.11-0.43h-1.5c-0.11-0.22-0.34-0.38-0.61-0.38c-0.38,0-0.68,0.3-0.68,0.68
			c0,0.38,0.3,0.68,0.68,0.68c0.33,0,0.61-0.24,0.67-0.56H8.05z"/>
		<path class="st2" d="M7.78,12.93h-1c-0.09-0.27-0.34-0.47-0.65-0.47c-0.38,0-0.68,0.3-0.68,0.68c0,0.38,0.3,0.68,0.68,0.68
			c0.3,0,0.56-0.2,0.65-0.47h0.97C7.76,13.22,7.77,13.07,7.78,12.93z"/>
		<path class="st2" d="M7.77,10.16H6.99C6.9,9.9,6.64,9.71,6.35,9.71c-0.38,0-0.68,0.3-0.68,0.68s0.3,0.68,0.68,0.68
			c0.31,0,0.56-0.2,0.65-0.48h0.59l0.57,0.57c0.05-0.15,0.1-0.3,0.16-0.44L7.77,10.16z"/>
	</g>
</g>
</svg>
