<svg xmlns="http://www.w3.org/2000/svg" xmlns:xlink="http://www.w3.org/1999/xlink" width="1024" zoomAndPan="magnify" viewBox="0 0 768 767.999994" height="1024" preserveAspectRatio="xMidYMid meet" version="1.0"><path fill="#73c756" d="M 744 330.960938 C 734.160156 252.960938 700.320312 185.519531 644.878906 129.839844 C 554.160156 38.640625 443.519531 4.558594 317.519531 25.921875 C 230.398438 40.800781 158.398438 85.441406 102.238281 154.320312 C 53.761719 213.839844 26.398438 282 21.121094 358.558594 C 15.601562 438.960938 36 513.121094 78.480469 581.519531 C 80.878906 585.601562 81.601562 592.078125 80.640625 596.640625 C 73.199219 625.921875 65.039062 655.199219 57.359375 684.480469 C 54.238281 696.480469 51.359375 708.71875 48 722.878906 C 54.960938 720.960938 60 720 64.800781 718.558594 C 101.039062 708.960938 137.039062 699.359375 173.039062 689.519531 C 180.238281 687.601562 185.761719 688.800781 192 692.640625 C 230.878906 716.398438 272.640625 733.199219 317.519531 741.359375 C 414 758.878906 504.71875 742.558594 585.121094 686.398438 C 708.960938 600.71875 763.199219 481.199219 744 330.960938 Z M 744 330.960938 " fill-opacity="1" fill-rule="nonzero"/><path fill="#ffffff" d="M 394.558594 188.878906 L 394.558594 222.71875 C 396.480469 224.398438 397.679688 226.800781 397.679688 229.441406 L 397.679688 247.199219 L 411.601562 247.199219 L 411.601562 229.679688 C 411.601562 226.558594 413.28125 223.679688 415.921875 222.238281 L 415.921875 202.558594 L 460.558594 157.921875 C 446.398438 150.71875 431.039062 145.441406 414.960938 142.078125 L 414.960938 168.480469 Z M 394.558594 188.878906 " fill-opacity="1" fill-rule="nonzero"/><path fill="#ffffff" d="M 250.320312 278.878906 C 251.761719 276.480469 254.640625 274.558594 257.761719 274.558594 L 275.519531 274.558594 C 278.160156 258.960938 291.839844 247.199219 308.160156 247.199219 L 316.800781 247.199219 L 316.800781 229.679688 C 316.800781 226.800781 318.238281 224.160156 320.398438 222.71875 L 320.398438 184.800781 L 292.800781 157.199219 C 250.558594 177.839844 217.199219 213.359375 199.679688 257.28125 L 221.519531 279.121094 L 250.320312 279.121094 Z M 250.320312 278.878906 " fill-opacity="1" fill-rule="nonzero"/><path fill="#ffffff" d="M 330.71875 222 C 333.359375 223.441406 335.039062 226.320312 335.039062 229.441406 L 335.039062 247.199219 L 348.480469 247.199219 L 348.480469 229.679688 C 348.480469 227.039062 349.679688 224.640625 351.601562 223.199219 L 351.601562 162.71875 L 332.160156 143.28125 C 321.839844 145.679688 312 148.800781 302.878906 152.640625 L 330.71875 180.480469 Z M 330.71875 222 " fill-opacity="1" fill-rule="nonzero"/><path fill="#ffffff" d="M 361.441406 221.761719 C 364.320312 223.199219 366.238281 226.078125 366.238281 229.679688 L 366.238281 247.441406 L 379.679688 247.441406 L 379.679688 229.679688 C 379.679688 226.320312 381.601562 223.441406 384.238281 222 L 384.238281 184.800781 L 404.640625 164.398438 L 404.640625 140.398438 C 395.28125 138.960938 385.679688 138.238281 375.839844 138.238281 C 364.800781 138.238281 354 139.199219 343.441406 140.878906 L 361.199219 158.640625 L 361.199219 221.761719 Z M 361.441406 221.761719 " fill-opacity="1" fill-rule="nonzero"/><path fill="#ffffff" d="M 257.761719 306.238281 L 275.039062 306.238281 L 275.039062 292.800781 L 257.761719 292.800781 C 254.878906 292.800781 252.238281 291.359375 250.558594 289.199219 L 217.199219 289.199219 L 195.601562 267.601562 C 191.039062 281.28125 187.921875 295.441406 186.71875 310.320312 L 250.320312 310.320312 C 252 307.921875 254.640625 306.238281 257.761719 306.238281 Z M 257.761719 306.238281 " fill-opacity="1" fill-rule="nonzero"/><path fill="#ffffff" d="M 496.558594 289.199219 C 494.878906 291.359375 492.480469 292.800781 489.359375 292.800781 L 471.601562 292.800781 L 471.601562 306.238281 L 489.359375 306.238281 C 492.480469 306.238281 495.359375 307.921875 496.800781 310.320312 L 533.039062 310.320312 L 548.160156 295.199219 L 563.28125 295.199219 C 560.640625 280.320312 556.320312 265.921875 550.320312 252.238281 L 513.359375 289.199219 Z M 496.558594 289.199219 " fill-opacity="1" fill-rule="nonzero"/><path fill="#ffffff" d="M 320.398438 441.839844 L 320.398438 408.238281 C 318.238281 406.558594 316.800781 404.160156 316.800781 401.28125 L 316.800781 383.519531 L 308.160156 383.519531 C 291.839844 383.519531 278.160156 371.519531 275.519531 356.160156 L 257.761719 356.160156 C 254.398438 356.160156 251.519531 354.238281 250.078125 351.359375 L 238.800781 351.359375 L 210 380.160156 L 193.199219 380.160156 C 193.441406 381.121094 193.679688 381.839844 193.921875 382.800781 C 197.519531 394.800781 202.320312 406.320312 208.078125 417.121094 C 217.441406 436.078125 224.878906 455.039062 230.160156 473.28125 L 288.480469 473.28125 Z M 320.398438 441.839844 " fill-opacity="1" fill-rule="nonzero"/><path fill="#ffffff" d="M 426.238281 222.71875 C 428.398438 224.398438 429.839844 226.800781 429.839844 229.679688 L 429.839844 247.441406 L 438.480469 247.441406 C 455.28125 247.441406 468.960938 259.921875 471.121094 276 L 471.121094 274.800781 L 489.359375 274.800781 C 492.480469 274.800781 495.359375 276.480469 496.800781 279.121094 L 509.039062 279.121094 L 545.761719 242.398438 C 528.960938 209.039062 502.558594 181.441406 470.160156 162.960938 L 426.238281 206.878906 Z M 426.238281 222.71875 " fill-opacity="1" fill-rule="nonzero"/><path fill="#ffffff" d="M 234.71875 341.28125 L 251.28125 341.28125 C 252.960938 339.359375 255.359375 338.160156 258 338.160156 L 275.28125 338.160156 L 275.28125 324.238281 L 258 324.238281 C 255.121094 324.238281 252.480469 322.800781 250.800781 320.640625 L 186.238281 320.640625 C 186.238281 323.039062 186 325.679688 186 328.078125 C 186 342.480469 187.679688 356.398438 190.558594 370.078125 L 205.921875 370.078125 Z M 234.71875 341.28125 " fill-opacity="1" fill-rule="nonzero"/><path fill="#ffffff" d="M 537.121094 320.640625 L 496.320312 320.640625 C 494.640625 322.800781 492.238281 324.238281 489.121094 324.238281 L 471.359375 324.238281 L 471.359375 338.160156 L 489.121094 338.160156 C 492.238281 338.160156 495.121094 339.839844 496.558594 342.480469 L 527.28125 342.480469 L 576.480469 391.679688 L 595.441406 391.679688 L 565.199219 343.441406 C 565.679688 338.398438 565.921875 333.359375 565.921875 328.320312 C 565.921875 320.640625 565.441406 313.199219 564.480469 305.761719 L 552 305.761719 Z M 537.121094 320.640625 " fill-opacity="1" fill-rule="nonzero"/><path fill="#ffffff" d="M 438.480469 259.199219 L 308.160156 259.199219 C 296.640625 259.199219 287.039062 268.558594 287.039062 280.320312 L 287.039062 350.640625 C 287.039062 362.160156 296.398438 371.761719 308.160156 371.761719 L 438.480469 371.761719 C 450 371.761719 459.601562 362.398438 459.601562 350.640625 L 459.601562 280.320312 C 459.601562 268.800781 450.238281 259.199219 438.480469 259.199219 Z M 450.480469 350.640625 C 450.480469 357.359375 445.199219 362.640625 438.480469 362.640625 L 308.160156 362.640625 C 301.441406 362.640625 296.160156 357.359375 296.160156 350.640625 L 296.160156 304.320312 L 450.480469 304.320312 Z M 450.480469 280.800781 L 296.160156 280.800781 L 296.160156 280.558594 C 296.160156 273.839844 301.441406 268.558594 308.160156 268.558594 L 438.480469 268.558594 C 445.199219 268.558594 450.480469 273.839844 450.480469 280.558594 Z M 450.480469 280.800781 " fill-opacity="1" fill-rule="nonzero"/><path fill="#ffffff" d="M 409.199219 351.359375 C 412.078125 351.359375 414.71875 350.398438 416.878906 348.71875 C 419.039062 350.398438 421.679688 351.359375 424.558594 351.359375 C 431.519531 351.359375 437.039062 345.839844 437.039062 338.878906 C 437.039062 331.921875 431.519531 326.398438 424.558594 326.398438 C 421.679688 326.398438 419.039062 327.359375 416.878906 329.039062 C 414.71875 327.359375 412.078125 326.398438 409.199219 326.398438 C 402.238281 326.398438 396.71875 331.921875 396.71875 338.878906 C 396.480469 345.601562 402.238281 351.359375 409.199219 351.359375 Z M 409.199219 351.359375 " fill-opacity="1" fill-rule="nonzero"/><path fill="#ffffff" d="M 312.71875 329.039062 L 384.960938 329.039062 C 387.359375 329.039062 389.519531 326.878906 389.519531 324.480469 C 389.519531 322.078125 387.359375 319.921875 384.960938 319.921875 L 312.71875 319.921875 C 310.320312 319.921875 308.160156 322.078125 308.160156 324.480469 C 308.160156 326.878906 310.078125 329.039062 312.71875 329.039062 Z M 312.71875 329.039062 " fill-opacity="1" fill-rule="nonzero"/><path fill="#ffffff" d="M 312.71875 346.320312 L 349.199219 346.320312 C 351.601562 346.320312 353.761719 344.160156 353.761719 341.761719 C 353.761719 339.359375 351.601562 337.199219 349.199219 337.199219 L 312.71875 337.199219 C 310.320312 337.199219 308.160156 339.359375 308.160156 341.761719 C 308.160156 344.160156 310.078125 346.320312 312.71875 346.320312 Z M 312.71875 346.320312 " fill-opacity="1" fill-rule="nonzero"/><path fill="#ffffff" d="M 282.238281 132 L 232.078125 132 C 229.921875 125.761719 223.921875 120.960938 216.71875 120.960938 C 207.601562 120.960938 200.398438 128.160156 200.398438 137.28125 C 200.398438 146.398438 207.601562 153.601562 216.71875 153.601562 C 223.921875 153.601562 230.160156 148.800781 232.320312 142.320312 L 278.160156 142.320312 L 293.039062 157.199219 C 296.398438 155.519531 299.761719 154.078125 303.121094 152.640625 Z M 282.238281 132 " fill-opacity="1" fill-rule="nonzero"/><path fill="#ffffff" d="M 343.679688 140.640625 L 333.121094 130.078125 C 335.039062 127.441406 336 124.320312 336 120.960938 C 336 111.839844 328.800781 104.640625 319.679688 104.640625 C 310.558594 104.640625 303.359375 111.839844 303.359375 120.960938 C 303.359375 130.078125 310.558594 137.28125 319.679688 137.28125 C 321.601562 137.28125 323.28125 137.039062 324.960938 136.320312 L 331.679688 143.039062 C 335.761719 142.320312 339.601562 141.359375 343.679688 140.640625 Z M 343.679688 140.640625 " fill-opacity="1" fill-rule="nonzero"/><path fill="#ffffff" d="M 426.238281 95.519531 C 426.238281 86.398438 419.039062 79.199219 409.921875 79.199219 C 400.800781 79.199219 393.601562 86.398438 393.601562 95.519531 C 393.601562 102.71875 398.398438 108.960938 404.878906 111.121094 L 404.878906 140.398438 C 408.238281 140.878906 411.839844 141.601562 415.199219 142.320312 L 415.199219 110.878906 C 421.679688 108.71875 426.238281 102.71875 426.238281 95.519531 Z M 426.238281 95.519531 " fill-opacity="1" fill-rule="nonzero"/><path fill="#ffffff" d="M 492.238281 115.679688 C 483.121094 115.679688 475.921875 122.878906 475.921875 132 C 475.921875 135.121094 476.640625 137.761719 478.078125 140.160156 L 460.558594 157.679688 C 463.679688 159.359375 467.039062 161.039062 469.921875 162.71875 L 485.519531 147.121094 C 487.441406 147.839844 489.601562 148.320312 492 148.320312 C 501.121094 148.320312 508.320312 141.121094 508.320312 132 C 508.558594 123.121094 501.121094 115.679688 492.238281 115.679688 Z M 492.238281 115.679688 " fill-opacity="1" fill-rule="nonzero"/><path fill="#ffffff" d="M 571.921875 205.441406 C 562.800781 205.441406 555.601562 212.640625 555.601562 221.761719 C 555.601562 224.878906 556.558594 227.761719 558 230.160156 L 546 242.160156 C 547.679688 245.28125 549.121094 248.640625 550.558594 252 L 565.921875 236.640625 C 567.839844 237.359375 569.761719 237.839844 571.921875 237.839844 C 581.039062 237.839844 588.238281 230.640625 588.238281 221.519531 C 588.238281 212.878906 580.800781 205.441406 571.921875 205.441406 Z M 571.921875 205.441406 " fill-opacity="1" fill-rule="nonzero"/><path fill="#ffffff" d="M 617.28125 283.921875 C 610.078125 283.921875 603.839844 288.71875 601.679688 295.199219 L 563.28125 295.199219 C 563.761719 298.558594 564.480469 301.921875 564.71875 305.519531 L 601.679688 305.519531 C 603.839844 312 609.839844 316.800781 617.28125 316.800781 C 626.398438 316.800781 633.601562 309.601562 633.601562 300.480469 C 633.601562 291.359375 626.398438 283.921875 617.28125 283.921875 Z M 617.28125 283.921875 " fill-opacity="1" fill-rule="nonzero"/><path fill="#ffffff" d="M 640.558594 380.398438 C 633.359375 380.398438 627.121094 385.199219 624.960938 391.679688 L 595.679688 391.679688 L 602.160156 402 L 624.960938 402 C 627.121094 408.480469 633.121094 413.28125 640.558594 413.28125 C 649.679688 413.28125 656.878906 406.078125 656.878906 396.960938 C 656.878906 387.839844 649.679688 380.398438 640.558594 380.398438 Z M 640.558594 380.398438 " fill-opacity="1" fill-rule="nonzero"/><path fill="#ffffff" d="M 233.28125 483.601562 C 232.320312 480.238281 231.359375 476.878906 230.398438 473.28125 L 217.199219 473.28125 C 215.039062 466.800781 209.039062 462 201.601562 462 C 192.480469 462 185.28125 469.199219 185.28125 478.320312 C 185.28125 487.441406 192.480469 494.640625 201.601562 494.640625 C 208.800781 494.640625 215.039062 489.839844 217.199219 483.359375 L 233.28125 483.359375 Z M 233.28125 483.601562 " fill-opacity="1" fill-rule="nonzero"/><path fill="#ffffff" d="M 617.28125 425.761719 L 602.160156 401.761719 L 572.398438 401.761719 L 523.199219 352.558594 L 496.078125 352.558594 C 494.398438 354.71875 492 356.160156 489.121094 356.160156 L 470.878906 356.160156 L 470.878906 355.199219 C 468.71875 371.28125 454.800781 383.761719 438.238281 383.761719 L 429.601562 383.761719 L 429.601562 401.519531 C 429.601562 404.640625 428.160156 407.28125 425.761719 408.71875 L 425.761719 420 L 464.398438 458.640625 L 464.398438 501.121094 C 470.878906 503.28125 475.441406 509.28125 475.441406 516.480469 C 475.441406 525.601562 468.238281 532.800781 459.121094 532.800781 C 450 532.800781 442.800781 525.601562 442.800781 516.480469 C 442.800781 509.28125 447.601562 503.039062 454.078125 500.878906 L 454.078125 462.71875 L 415.441406 424.078125 L 415.441406 408.480469 C 413.039062 406.800781 411.359375 404.160156 411.359375 401.039062 L 411.359375 383.28125 L 397.441406 383.28125 L 397.441406 401.039062 C 397.441406 403.679688 396.238281 406.078125 394.320312 407.761719 L 394.320312 433.921875 L 423.601562 463.199219 C 425.761719 462 428.160156 461.519531 430.800781 461.519531 C 439.917969 461.519531 447.121094 468.71875 447.121094 477.839844 C 447.121094 486.960938 439.921875 494.160156 430.800781 494.160156 C 421.679688 494.160156 414.480469 486.960938 414.480469 477.839844 C 414.480469 475.199219 415.199219 472.558594 416.160156 470.398438 L 384 438.238281 L 384 408.71875 C 381.359375 407.28125 379.441406 404.398438 379.441406 401.039062 L 379.441406 383.28125 L 366 383.28125 L 366 401.039062 C 366 403.921875 364.558594 406.320312 362.640625 408 L 362.640625 420 L 378 435.359375 L 378 463.921875 C 384.71875 466.078125 389.519531 472.078125 389.519531 479.519531 C 389.519531 488.640625 382.320312 495.839844 373.199219 495.839844 C 364.078125 495.839844 356.878906 488.640625 356.878906 479.519531 C 356.878906 472.320312 361.441406 466.320312 367.679688 464.160156 L 367.679688 439.679688 L 352.320312 424.320312 L 352.320312 408.71875 C 349.679688 407.28125 348 404.398438 348 401.28125 L 348 383.519531 L 334.558594 383.519531 L 334.558594 401.28125 C 334.558594 404.398438 332.878906 407.28125 330.238281 408.71875 L 330.238281 445.921875 L 292.558594 483.601562 L 233.28125 483.601562 C 245.039062 525.839844 247.199219 561.601562 247.679688 575.519531 C 248.398438 601.199219 240 640.800781 240 640.800781 L 478.800781 640.800781 C 476.640625 612.960938 484.078125 599.519531 484.078125 599.519531 C 484.078125 599.519531 436.078125 600.480469 397.199219 578.878906 C 368.878906 563.28125 355.679688 532.078125 350.640625 516.480469 C 348.71875 510.71875 348 506.878906 348 506.878906 L 359.28125 506.878906 L 360.71875 512.878906 C 361.199219 514.558594 361.679688 516.238281 362.398438 517.679688 C 371.039062 543.121094 381.601562 554.640625 405.121094 570.238281 C 430.078125 586.800781 506.398438 594.960938 540 590.878906 C 573.601562 586.800781 576.238281 551.28125 577.199219 544.558594 C 578.160156 537.839844 579.359375 460.558594 579.359375 460.558594 C 590.878906 459.601562 604.078125 457.679688 604.078125 457.679688 C 635.039062 449.28125 617.28125 425.761719 617.28125 425.761719 Z M 617.28125 425.761719 " fill-opacity="1" fill-rule="nonzero"/><path fill="#ffffff" d="M 193.199219 380.160156 C 192.238281 376.800781 191.28125 373.441406 190.558594 369.839844 L 154.558594 369.839844 C 151.921875 364.558594 146.398438 360.71875 139.921875 360.71875 C 130.800781 360.71875 123.601562 367.921875 123.601562 377.039062 C 123.601562 386.160156 130.800781 393.359375 139.921875 393.359375 C 147.839844 393.359375 154.558594 387.601562 156 379.921875 L 193.199219 379.921875 Z M 193.199219 380.160156 " fill-opacity="1" fill-rule="nonzero"/><path fill="#ffffff" d="M 186.71875 310.320312 L 162.71875 310.320312 C 160.558594 303.839844 154.558594 299.039062 147.121094 299.039062 C 138 299.039062 130.800781 306.238281 130.800781 315.359375 C 130.800781 324.480469 138 331.679688 147.121094 331.679688 C 154.320312 331.679688 160.558594 326.878906 162.71875 320.398438 L 186 320.398438 C 186.238281 317.28125 186.480469 313.679688 186.71875 310.320312 Z M 186.71875 310.320312 " fill-opacity="1" fill-rule="nonzero"/><path fill="#ffffff" d="M 186.480469 243.839844 L 167.761719 243.839844 C 165.601562 237.601562 159.359375 233.039062 152.398438 233.039062 C 143.28125 233.039062 136.078125 240.238281 136.078125 249.359375 C 136.078125 258.480469 143.28125 265.679688 152.398438 265.679688 C 159.839844 265.679688 165.839844 260.878906 168 254.160156 L 182.160156 254.160156 L 195.839844 267.839844 C 197.039062 264.238281 198.238281 260.640625 199.679688 257.28125 Z M 186.480469 243.839844 " fill-opacity="1" fill-rule="nonzero"/></svg>