<?xml version="1.0" encoding="utf-8"?>
<!-- Generator: Adobe Illustrator 27.2.0, SVG Export Plug-In . SVG Version: 6.00 Build 0)  -->
<svg version="1.1" id="Capa_1" xmlns="http://www.w3.org/2000/svg" xmlns:xlink="http://www.w3.org/1999/xlink" x="0px" y="0px"
	 viewBox="0 0 16 16" style="enable-background:new 0 0 16 16;" xml:space="preserve">
<style type="text/css">
	.st0{fill:#73C756;}
	.st1{fill:none;}
	.st2{fill:#FFFFFF;}
</style>
<g>
	<path class="st0" d="M15.55,6.89c-0.21-1.64-0.92-3.05-2.08-4.22c-1.9-1.91-4.22-2.63-6.86-2.18C4.78,0.81,3.27,1.74,2.09,3.18
		C1.07,4.43,0.5,5.86,0.39,7.47c-0.12,1.69,0.31,3.24,1.2,4.67c0.05,0.08,0.07,0.22,0.04,0.32c-0.15,0.62-0.33,1.23-0.49,1.84
		c-0.07,0.25-0.13,0.51-0.2,0.8c0.15-0.04,0.26-0.06,0.36-0.09c0.76-0.2,1.52-0.4,2.27-0.61c0.15-0.04,0.27-0.01,0.4,0.07
		c0.82,0.5,1.69,0.85,2.63,1.02c2.02,0.37,3.93,0.02,5.61-1.15C14.81,12.54,15.95,10.04,15.55,6.89z"/>
	<g>
		<path class="st1" d="M9.14,5.58H6.41c-0.14,0-0.25,0.11-0.25,0.25v0.01h3.24V5.83C9.39,5.69,9.28,5.58,9.14,5.58z"/>
		<path class="st1" d="M6.16,7.3c0,0.14,0.11,0.25,0.25,0.25h2.73c0.14,0,0.25-0.11,0.25-0.25V6.33H6.16V7.3z M8.53,6.79
			c0.06,0,0.12,0.02,0.16,0.06c0.04-0.04,0.1-0.06,0.16-0.06c0.14,0,0.26,0.12,0.26,0.26C9.11,7.2,9,7.31,8.85,7.31
			c-0.06,0-0.12-0.02-0.16-0.06c-0.04,0.04-0.1,0.06-0.16,0.06c-0.14,0-0.26-0.12-0.26-0.26C8.26,6.91,8.38,6.79,8.53,6.79z
			 M6.5,6.66h1.52c0.05,0,0.1,0.04,0.1,0.1c0,0.05-0.04,0.1-0.1,0.1H6.5c-0.05,0-0.1-0.04-0.1-0.1C6.41,6.7,6.45,6.66,6.5,6.66z
			 M6.5,7.02h0.77c0.05,0,0.1,0.04,0.1,0.1s-0.04,0.1-0.1,0.1H6.5c-0.05,0-0.1-0.04-0.1-0.1S6.45,7.02,6.5,7.02z"/>
		<path class="st1" d="M10.21,7.04H9.84V6.75h0.37c0.06,0,0.12-0.03,0.15-0.08h-0.07V6.46h0.08c-0.03-0.05-0.09-0.09-0.16-0.09H9.84
			V6.09h0.37c0.06,0,0.12-0.03,0.15-0.08h-0.13V5.8h0.14c-0.03-0.05-0.09-0.09-0.16-0.09H9.83v0.02c-0.05-0.34-0.34-0.6-0.69-0.6
			H8.96V4.76c0-0.06-0.03-0.11-0.07-0.15v0.09H8.67V4.6C8.62,4.64,8.58,4.69,8.58,4.76v0.37H8.29V4.76c0-0.06-0.03-0.11-0.07-0.14
			v0.09H8.01V4.6c-0.06,0.03-0.1,0.09-0.1,0.16v0.37H7.63V4.76c0-0.07-0.04-0.13-0.1-0.16v0.11H7.31V4.62
			C7.28,4.66,7.25,4.71,7.25,4.76v0.37H6.97V4.76c0-0.07-0.04-0.12-0.09-0.16v0.1H6.67V4.61C6.62,4.65,6.59,4.7,6.59,4.76v0.37H6.41
			c-0.34,0-0.63,0.25-0.68,0.58H5.35c-0.07,0-0.12,0.04-0.16,0.09h0.11v0.22H5.2c0.03,0.05,0.09,0.08,0.15,0.08h0.36v0.28H5.35
			c-0.07,0-0.12,0.03-0.16,0.09h0.11v0.22H5.2c0.03,0.05,0.09,0.08,0.15,0.08h0.36v0.29H5.35c-0.06,0-0.11,0.03-0.14,0.07h0.1v0.22
			H5.19c0.03,0.06,0.09,0.1,0.16,0.1h0.37c0.06,0.33,0.34,0.58,0.68,0.58h0.18v0.37c0,0.06,0.03,0.11,0.07,0.15V8.48h0.22v0.04
			c0.05-0.03,0.09-0.09,0.09-0.16V7.99h0.28v0.37c0,0.07,0.04,0.13,0.09,0.16V8.35h0.22v0.16C7.6,8.48,7.63,8.42,7.63,8.36V7.99
			h0.28v0.37c0,0.07,0.04,0.13,0.1,0.16V8.44h0.22v0.07c0.04-0.03,0.07-0.08,0.07-0.14V7.99h0.29v0.37c0,0.06,0.03,0.12,0.08,0.15
			V8.48h0.22v0.04c0.05-0.03,0.08-0.09,0.08-0.15V7.99h0.18c0.35,0,0.64-0.26,0.69-0.6v0.02h0.38c0.06,0,0.11-0.03,0.15-0.08h-0.05
			V7.13h0.06C10.33,7.07,10.28,7.04,10.21,7.04z M9.59,7.3c0,0.24-0.2,0.44-0.44,0.44H6.41c-0.24,0-0.44-0.2-0.44-0.44V5.83
			c0-0.24,0.2-0.44,0.44-0.44h2.73c0.24,0,0.44,0.2,0.44,0.44V7.3z"/>
		<path class="st2" d="M8.22,3.91v0.71c0.04,0.03,0.07,0.08,0.07,0.14v0.37h0.29V4.76c0-0.07,0.04-0.13,0.09-0.16V4.19l0.94-0.94
			C9.31,3.11,8.99,3,8.65,2.93v0.56L8.22,3.91z"/>
		<path class="st2" d="M5.2,5.8c0.03-0.05,0.09-0.09,0.16-0.09h0.37c0.06-0.33,0.34-0.58,0.68-0.58h0.18V4.76
			c0-0.06,0.03-0.11,0.08-0.15V3.82L6.09,3.24C5.2,3.67,4.5,4.42,4.13,5.34L4.59,5.8H5.2z"/>
		<path class="st2" d="M6.88,4.61C6.94,4.64,6.97,4.7,6.97,4.76v0.37h0.28V4.76c0-0.06,0.02-0.1,0.06-0.14V3.36L6.9,2.95
			C6.69,3,6.49,3.07,6.3,3.15l0.58,0.58V4.61z"/>
		<path class="st2" d="M7.53,4.6c0.06,0.03,0.1,0.09,0.1,0.16v0.37h0.28V4.76c0-0.07,0.04-0.13,0.1-0.16V3.82l0.43-0.43V2.89
			c-0.2-0.03-0.4-0.05-0.6-0.05c-0.23,0-0.46,0.02-0.68,0.06l0.37,0.37V4.6z"/>
		<path class="st2" d="M5.35,6.37h0.36V6.09H5.35c-0.06,0-0.12-0.03-0.15-0.08H4.5L4.05,5.56c-0.1,0.28-0.16,0.58-0.19,0.89H5.2
			C5.23,6.4,5.29,6.37,5.35,6.37z"/>
		<path class="st2" d="M10.36,6.01c-0.03,0.05-0.09,0.08-0.15,0.08H9.84v0.28h0.37c0.07,0,0.12,0.04,0.16,0.09h0.76l0.32-0.32h0.32
			c-0.05-0.31-0.15-0.62-0.27-0.9l-0.78,0.78H10.36z"/>
		<path class="st2" d="M6.66,9.21v-0.7C6.62,8.48,6.59,8.42,6.59,8.36V7.99H6.41c-0.34,0-0.63-0.25-0.68-0.58H5.35
			c-0.07,0-0.13-0.04-0.16-0.1H4.96l-0.6,0.6H4c0.01,0.02,0.01,0.04,0.02,0.06l0,0c0,0,0,0,0,0c0.08,0.25,0.18,0.49,0.3,0.72
			c0.2,0.4,0.35,0.8,0.47,1.18H6L6.66,9.21z"/>
		<path class="st2" d="M8.89,4.62C8.93,4.65,8.96,4.7,8.96,4.76v0.37h0.18c0.35,0,0.64,0.26,0.69,0.6V5.71h0.38
			c0.07,0,0.12,0.04,0.16,0.09h0.26l0.77-0.77c-0.35-0.7-0.91-1.28-1.59-1.67L8.89,4.28V4.62z"/>
		<path class="st2" d="M4.87,7.1h0.35C5.25,7.06,5.3,7.04,5.35,7.04h0.36V6.75H5.35c-0.06,0-0.12-0.03-0.15-0.08H3.85
			c0,0.05,0,0.1,0,0.16c0,0.3,0.03,0.6,0.1,0.88h0.32L4.87,7.1z"/>
		<path class="st2" d="M11.21,6.67h-0.85c-0.03,0.05-0.09,0.08-0.15,0.08H9.84v0.29h0.37c0.07,0,0.13,0.04,0.16,0.09h0.65l1.03,1.03
			h0.4l-0.64-1.01c0.01-0.11,0.01-0.21,0.01-0.32c0-0.16-0.01-0.32-0.03-0.48h-0.26L11.21,6.67z"/>
		<path class="st2" d="M9.14,5.38H6.41c-0.24,0-0.44,0.2-0.44,0.44V7.3c0,0.24,0.2,0.44,0.44,0.44h2.73c0.24,0,0.44-0.2,0.44-0.44
			V5.83C9.59,5.58,9.39,5.38,9.14,5.38z M9.39,7.3c0,0.14-0.11,0.25-0.25,0.25H6.41c-0.14,0-0.25-0.11-0.25-0.25V6.33h3.24V7.3z
			 M9.39,5.83H6.16V5.83c0-0.14,0.11-0.25,0.25-0.25h2.73C9.28,5.58,9.39,5.69,9.39,5.83L9.39,5.83z"/>
		<path class="st2" d="M8.53,7.31c0.06,0,0.12-0.02,0.16-0.06c0.04,0.04,0.1,0.06,0.16,0.06C9,7.31,9.11,7.2,9.11,7.05
			c0-0.14-0.12-0.26-0.26-0.26c-0.06,0-0.12,0.02-0.16,0.06c-0.04-0.04-0.1-0.06-0.16-0.06c-0.14,0-0.26,0.12-0.26,0.26
			C8.26,7.2,8.38,7.31,8.53,7.31z"/>
		<path class="st2" d="M6.5,6.85h1.52c0.05,0,0.1-0.04,0.1-0.1c0-0.05-0.04-0.1-0.1-0.1H6.5c-0.05,0-0.1,0.04-0.1,0.1
			C6.41,6.8,6.45,6.85,6.5,6.85z"/>
		<path class="st2" d="M6.5,7.21h0.77c0.05,0,0.1-0.04,0.1-0.1s-0.04-0.1-0.1-0.1H6.5c-0.05,0-0.1,0.04-0.1,0.1S6.45,7.21,6.5,7.21z
			"/>
		<path class="st2" d="M5.87,2.72H4.82C4.77,2.58,4.64,2.49,4.49,2.49c-0.19,0-0.34,0.15-0.34,0.34c0,0.19,0.15,0.34,0.34,0.34
			c0.15,0,0.28-0.1,0.33-0.24h0.96l0.31,0.31C6.16,3.21,6.23,3.18,6.3,3.15L5.87,2.72z"/>
		<path class="st2" d="M7.16,2.9L6.94,2.68c0.04-0.05,0.06-0.12,0.06-0.19c0-0.19-0.15-0.34-0.34-0.34c-0.19,0-0.34,0.15-0.34,0.34
			c0,0.19,0.15,0.34,0.34,0.34c0.04,0,0.08-0.01,0.11-0.02L6.9,2.95C6.99,2.93,7.07,2.91,7.16,2.9z"/>
		<path class="st2" d="M8.89,1.95c0-0.19-0.15-0.34-0.34-0.34S8.2,1.76,8.2,1.95c0,0.15,0.1,0.28,0.23,0.33v0.61
			C8.51,2.9,8.58,2.91,8.65,2.93V2.27C8.79,2.23,8.89,2.1,8.89,1.95z"/>
		<path class="st2" d="M10.27,2.38c-0.19,0-0.34,0.15-0.34,0.34c0,0.06,0.02,0.12,0.05,0.17L9.61,3.26c0.07,0.03,0.13,0.07,0.2,0.11
			l0.33-0.33c0.04,0.02,0.09,0.03,0.13,0.03c0.19,0,0.34-0.15,0.34-0.34S10.46,2.38,10.27,2.38z"/>
		<path class="st2" d="M11.94,4.26c-0.19,0-0.34,0.15-0.34,0.34c0,0.07,0.02,0.13,0.05,0.18l-0.25,0.25
			c0.03,0.07,0.07,0.14,0.1,0.21l0.32-0.32c0.04,0.02,0.08,0.02,0.13,0.02c0.19,0,0.34-0.15,0.34-0.34S12.13,4.26,11.94,4.26z"/>
		<path class="st2" d="M12.89,5.9c-0.15,0-0.28,0.1-0.33,0.24h-0.81c0.01,0.07,0.02,0.14,0.03,0.22h0.78
			c0.05,0.14,0.17,0.23,0.33,0.23c0.19,0,0.34-0.15,0.34-0.34S13.08,5.9,12.89,5.9z"/>
		<path class="st2" d="M13.38,7.92c-0.15,0-0.28,0.1-0.33,0.24h-0.61l0.13,0.22h0.48c0.05,0.14,0.17,0.23,0.33,0.23
			c0.19,0,0.34-0.15,0.34-0.34C13.72,8.08,13.57,7.92,13.38,7.92z"/>
		<path class="st2" d="M4.84,10.09C4.82,10.02,4.8,9.95,4.78,9.87H4.5C4.46,9.74,4.33,9.64,4.18,9.64c-0.19,0-0.34,0.15-0.34,0.34
			c0,0.19,0.15,0.34,0.34,0.34c0.15,0,0.28-0.1,0.33-0.23H4.84z"/>
		<path class="st2" d="M12.89,8.88l-0.32-0.5h-0.62l-1.03-1.03h-0.57c-0.03,0.05-0.09,0.08-0.15,0.08H9.83V7.39
			c-0.05,0.34-0.34,0.6-0.69,0.6H8.96v0.37c0,0.06-0.03,0.12-0.08,0.15v0.24l0.81,0.81v0.89c0.13,0.05,0.23,0.17,0.23,0.32
			c0,0.19-0.15,0.34-0.34,0.34s-0.34-0.15-0.34-0.34c0-0.15,0.1-0.28,0.24-0.33v-0.8L8.66,8.84V8.52C8.61,8.49,8.58,8.43,8.58,8.36
			V7.99H8.29v0.37c0,0.06-0.03,0.11-0.07,0.14v0.55l0.61,0.61c0.05-0.02,0.1-0.04,0.15-0.04c0.19,0,0.34,0.15,0.34,0.34
			s-0.15,0.34-0.34,0.34c-0.19,0-0.34-0.15-0.34-0.34c0-0.06,0.01-0.11,0.04-0.16L8.01,9.14V8.53c-0.06-0.03-0.1-0.09-0.1-0.16V7.99
			H7.63v0.37c0,0.06-0.03,0.11-0.07,0.15v0.25l0.32,0.32v0.6c0.14,0.04,0.24,0.17,0.24,0.33c0,0.19-0.15,0.34-0.34,0.34
			c-0.19,0-0.34-0.15-0.34-0.34c0-0.15,0.1-0.28,0.23-0.32V9.17L7.34,8.85V8.52C7.29,8.49,7.25,8.43,7.25,8.36V7.99H6.97v0.37
			c0,0.07-0.04,0.13-0.09,0.16V9.3l-0.79,0.79H4.84c0.24,0.89,0.29,1.63,0.3,1.93c0.01,0.54-0.16,1.37-0.16,1.37h5.01
			c-0.04-0.59,0.11-0.86,0.11-0.86s-1.01,0.02-1.82-0.43c-0.59-0.33-0.87-0.98-0.98-1.31c-0.04-0.12-0.06-0.2-0.06-0.2h0.23
			l0.03,0.12c0.01,0.04,0.02,0.07,0.03,0.1c0.18,0.53,0.4,0.78,0.9,1.1c0.53,0.35,2.12,0.52,2.83,0.43c0.7-0.09,0.76-0.83,0.78-0.97
			c0.02-0.14,0.05-1.76,0.05-1.76c0.24-0.02,0.52-0.06,0.52-0.06C13.26,9.37,12.89,8.88,12.89,8.88z"/>
		<path class="st2" d="M4,7.92C3.98,7.85,3.96,7.78,3.95,7.71H3.19C3.14,7.59,3.02,7.52,2.89,7.52c-0.19,0-0.34,0.15-0.34,0.34
			c0,0.19,0.15,0.34,0.34,0.34c0.17,0,0.31-0.12,0.34-0.28H4z"/>
		<path class="st2" d="M3.87,6.46h-0.5C3.32,6.32,3.19,6.22,3.04,6.22c-0.19,0-0.34,0.15-0.34,0.34c0,0.19,0.15,0.34,0.34,0.34
			c0.15,0,0.28-0.1,0.33-0.24h0.49C3.85,6.6,3.86,6.53,3.87,6.46z"/>
		<path class="st2" d="M3.86,5.06H3.47C3.42,4.93,3.29,4.83,3.14,4.83c-0.19,0-0.34,0.15-0.34,0.34s0.15,0.34,0.34,0.34
			c0.15,0,0.28-0.1,0.33-0.24h0.3l0.29,0.29c0.03-0.08,0.05-0.15,0.08-0.22L3.86,5.06z"/>
	</g>
</g>
</svg>
