<svg xmlns="http://www.w3.org/2000/svg" xmlns:xlink="http://www.w3.org/1999/xlink" width="512" zoomAndPan="magnify" viewBox="0 0 384 383.999986" height="512" preserveAspectRatio="xMidYMid meet" version="1.0"><path fill="#73c756" d="M 372 165.480469 C 367.078125 126.480469 350.160156 92.761719 322.441406 64.921875 C 277.078125 19.320312 221.761719 2.28125 158.761719 12.960938 C 115.199219 20.398438 79.199219 42.71875 51.121094 77.160156 C 26.878906 106.921875 13.199219 141 10.558594 179.28125 C 7.800781 219.480469 18 256.558594 39.238281 290.761719 C 40.441406 292.800781 40.800781 296.039062 40.320312 298.320312 C 36.601562 312.960938 32.519531 327.601562 28.679688 342.238281 C 27.121094 348.238281 25.679688 354.359375 24 361.441406 C 27.480469 360.480469 30 360 32.398438 359.28125 C 50.519531 354.480469 68.519531 349.679688 86.519531 344.761719 C 90.121094 343.800781 92.878906 344.398438 96 346.320312 C 115.441406 358.199219 136.320312 366.601562 158.761719 370.679688 C 207 379.441406 252.359375 371.28125 292.558594 343.199219 C 354.480469 300.359375 381.601562 240.601562 372 165.480469 Z M 372 165.480469 " fill-opacity="1" fill-rule="nonzero"/><path fill="#ffffff" d="M 197.28125 94.441406 L 197.28125 111.359375 C 198.238281 112.199219 198.839844 113.398438 198.839844 114.71875 L 198.839844 123.601562 L 205.800781 123.601562 L 205.800781 114.839844 C 205.800781 113.28125 206.640625 111.839844 207.960938 111.121094 L 207.960938 101.28125 L 230.28125 78.960938 C 223.199219 75.359375 215.519531 72.71875 207.480469 71.039062 L 207.480469 84.238281 Z M 197.28125 94.441406 " fill-opacity="1" fill-rule="nonzero"/><path fill="#ffffff" d="M 125.160156 139.441406 C 125.878906 138.238281 127.320312 137.28125 128.878906 137.28125 L 137.761719 137.28125 C 139.078125 129.480469 145.921875 123.601562 154.078125 123.601562 L 158.398438 123.601562 L 158.398438 114.839844 C 158.398438 113.398438 159.121094 112.078125 160.199219 111.359375 L 160.199219 92.398438 L 146.398438 78.601562 C 125.28125 88.921875 108.601562 106.679688 99.839844 128.640625 L 110.761719 139.558594 L 125.160156 139.558594 Z M 125.160156 139.441406 " fill-opacity="1" fill-rule="nonzero"/><path fill="#ffffff" d="M 165.359375 111 C 166.679688 111.71875 167.519531 113.160156 167.519531 114.71875 L 167.519531 123.601562 L 174.238281 123.601562 L 174.238281 114.839844 C 174.238281 113.519531 174.839844 112.320312 175.800781 111.601562 L 175.800781 81.359375 L 166.078125 71.640625 C 160.921875 72.839844 156 74.398438 151.441406 76.320312 L 165.359375 90.238281 Z M 165.359375 111 " fill-opacity="1" fill-rule="nonzero"/><path fill="#ffffff" d="M 180.71875 110.878906 C 182.160156 111.601562 183.121094 113.039062 183.121094 114.839844 L 183.121094 123.71875 L 189.839844 123.71875 L 189.839844 114.839844 C 189.839844 113.160156 190.800781 111.71875 192.121094 111 L 192.121094 92.398438 L 202.320312 82.199219 L 202.320312 70.199219 C 197.640625 69.480469 192.839844 69.121094 187.921875 69.121094 C 182.398438 69.121094 177 69.601562 171.71875 70.441406 L 180.601562 79.320312 L 180.601562 110.878906 Z M 180.71875 110.878906 " fill-opacity="1" fill-rule="nonzero"/><path fill="#ffffff" d="M 128.878906 153.121094 L 137.519531 153.121094 L 137.519531 146.398438 L 128.878906 146.398438 C 127.441406 146.398438 126.121094 145.679688 125.28125 144.601562 L 108.601562 144.601562 L 97.800781 133.800781 C 95.519531 140.640625 93.960938 147.71875 93.359375 155.160156 L 125.160156 155.160156 C 126 153.960938 127.320312 153.121094 128.878906 153.121094 Z M 128.878906 153.121094 " fill-opacity="1" fill-rule="nonzero"/><path fill="#ffffff" d="M 248.28125 144.601562 C 247.441406 145.679688 246.238281 146.398438 244.679688 146.398438 L 235.800781 146.398438 L 235.800781 153.121094 L 244.679688 153.121094 C 246.238281 153.121094 247.679688 153.960938 248.398438 155.160156 L 266.519531 155.160156 L 274.078125 147.601562 L 281.640625 147.601562 C 280.320312 140.160156 278.160156 132.960938 275.160156 126.121094 L 256.679688 144.601562 Z M 248.28125 144.601562 " fill-opacity="1" fill-rule="nonzero"/><path fill="#ffffff" d="M 160.199219 220.921875 L 160.199219 204.121094 C 159.121094 203.28125 158.398438 202.078125 158.398438 200.640625 L 158.398438 191.761719 L 154.078125 191.761719 C 145.921875 191.761719 139.078125 185.761719 137.761719 178.078125 L 128.878906 178.078125 C 127.199219 178.078125 125.761719 177.121094 125.039062 175.679688 L 119.398438 175.679688 L 105 190.078125 L 96.601562 190.078125 C 96.71875 190.558594 96.839844 190.921875 96.960938 191.398438 C 98.761719 197.398438 101.160156 203.160156 104.039062 208.558594 C 108.71875 218.039062 112.441406 227.519531 115.078125 236.640625 L 144.238281 236.640625 Z M 160.199219 220.921875 " fill-opacity="1" fill-rule="nonzero"/><path fill="#ffffff" d="M 213.121094 111.359375 C 214.199219 112.199219 214.921875 113.398438 214.921875 114.839844 L 214.921875 123.71875 L 219.238281 123.71875 C 227.640625 123.71875 234.480469 129.960938 235.558594 138 L 235.558594 137.398438 L 244.679688 137.398438 C 246.238281 137.398438 247.679688 138.238281 248.398438 139.558594 L 254.519531 139.558594 L 272.878906 121.199219 C 264.480469 104.519531 251.28125 90.71875 235.078125 81.480469 L 213.121094 103.441406 Z M 213.121094 111.359375 " fill-opacity="1" fill-rule="nonzero"/><path fill="#ffffff" d="M 117.359375 170.640625 L 125.640625 170.640625 C 126.480469 169.679688 127.679688 169.078125 129 169.078125 L 137.640625 169.078125 L 137.640625 162.121094 L 129 162.121094 C 127.558594 162.121094 126.238281 161.398438 125.398438 160.320312 L 93.121094 160.320312 C 93.121094 161.519531 93 162.839844 93 164.039062 C 93 171.238281 93.839844 178.199219 95.28125 185.039062 L 102.960938 185.039062 Z M 117.359375 170.640625 " fill-opacity="1" fill-rule="nonzero"/><path fill="#ffffff" d="M 268.558594 160.320312 L 248.160156 160.320312 C 247.320312 161.398438 246.121094 162.121094 244.558594 162.121094 L 235.679688 162.121094 L 235.679688 169.078125 L 244.558594 169.078125 C 246.121094 169.078125 247.558594 169.921875 248.28125 171.238281 L 263.640625 171.238281 L 288.238281 195.839844 L 297.71875 195.839844 L 282.601562 171.71875 C 282.839844 169.199219 282.960938 166.679688 282.960938 164.160156 C 282.960938 160.320312 282.71875 156.601562 282.238281 152.878906 L 276 152.878906 Z M 268.558594 160.320312 " fill-opacity="1" fill-rule="nonzero"/><path fill="#ffffff" d="M 219.238281 129.601562 L 154.078125 129.601562 C 148.320312 129.601562 143.519531 134.28125 143.519531 140.160156 L 143.519531 175.320312 C 143.519531 181.078125 148.199219 185.878906 154.078125 185.878906 L 219.238281 185.878906 C 225 185.878906 229.800781 181.199219 229.800781 175.320312 L 229.800781 140.160156 C 229.800781 134.398438 225.121094 129.601562 219.238281 129.601562 Z M 225.238281 175.320312 C 225.238281 178.679688 222.601562 181.320312 219.238281 181.320312 L 154.078125 181.320312 C 150.71875 181.320312 148.078125 178.679688 148.078125 175.320312 L 148.078125 152.160156 L 225.238281 152.160156 Z M 225.238281 140.398438 L 148.078125 140.398438 L 148.078125 140.28125 C 148.078125 136.921875 150.71875 134.28125 154.078125 134.28125 L 219.238281 134.28125 C 222.601562 134.28125 225.238281 136.921875 225.238281 140.28125 Z M 225.238281 140.398438 " fill-opacity="1" fill-rule="nonzero"/><path fill="#ffffff" d="M 204.601562 175.679688 C 206.039062 175.679688 207.359375 175.199219 208.441406 174.359375 C 209.519531 175.199219 210.839844 175.679688 212.28125 175.679688 C 215.761719 175.679688 218.519531 172.921875 218.519531 169.441406 C 218.519531 165.960938 215.761719 163.199219 212.28125 163.199219 C 210.839844 163.199219 209.519531 163.679688 208.441406 164.519531 C 207.359375 163.679688 206.039062 163.199219 204.601562 163.199219 C 201.121094 163.199219 198.359375 165.960938 198.359375 169.441406 C 198.238281 172.800781 201.121094 175.679688 204.601562 175.679688 Z M 204.601562 175.679688 " fill-opacity="1" fill-rule="nonzero"/><path fill="#ffffff" d="M 156.359375 164.519531 L 192.480469 164.519531 C 193.679688 164.519531 194.761719 163.441406 194.761719 162.238281 C 194.761719 161.039062 193.679688 159.960938 192.480469 159.960938 L 156.359375 159.960938 C 155.160156 159.960938 154.078125 161.039062 154.078125 162.238281 C 154.078125 163.441406 155.039062 164.519531 156.359375 164.519531 Z M 156.359375 164.519531 " fill-opacity="1" fill-rule="nonzero"/><path fill="#ffffff" d="M 156.359375 173.160156 L 174.601562 173.160156 C 175.800781 173.160156 176.878906 172.078125 176.878906 170.878906 C 176.878906 169.679688 175.800781 168.601562 174.601562 168.601562 L 156.359375 168.601562 C 155.160156 168.601562 154.078125 169.679688 154.078125 170.878906 C 154.078125 172.078125 155.039062 173.160156 156.359375 173.160156 Z M 156.359375 173.160156 " fill-opacity="1" fill-rule="nonzero"/><path fill="#ffffff" d="M 141.121094 66 L 116.039062 66 C 114.960938 62.878906 111.960938 60.480469 108.359375 60.480469 C 103.800781 60.480469 100.199219 64.078125 100.199219 68.640625 C 100.199219 73.199219 103.800781 76.800781 108.359375 76.800781 C 111.960938 76.800781 115.078125 74.398438 116.160156 71.160156 L 139.078125 71.160156 L 146.519531 78.601562 C 148.199219 77.761719 149.878906 77.039062 151.558594 76.320312 Z M 141.121094 66 " fill-opacity="1" fill-rule="nonzero"/><path fill="#ffffff" d="M 171.839844 70.320312 L 166.558594 65.039062 C 167.519531 63.71875 168 62.160156 168 60.480469 C 168 55.921875 164.398438 52.320312 159.839844 52.320312 C 155.28125 52.320312 151.679688 55.921875 151.679688 60.480469 C 151.679688 65.039062 155.28125 68.640625 159.839844 68.640625 C 160.800781 68.640625 161.640625 68.519531 162.480469 68.160156 L 165.839844 71.519531 C 167.878906 71.160156 169.800781 70.679688 171.839844 70.320312 Z M 171.839844 70.320312 " fill-opacity="1" fill-rule="nonzero"/><path fill="#ffffff" d="M 213.121094 47.761719 C 213.121094 43.199219 209.519531 39.601562 204.960938 39.601562 C 200.398438 39.601562 196.800781 43.199219 196.800781 47.761719 C 196.800781 51.359375 199.199219 54.480469 202.441406 55.558594 L 202.441406 70.199219 C 204.121094 70.441406 205.921875 70.800781 207.601562 71.160156 L 207.601562 55.441406 C 210.839844 54.359375 213.121094 51.359375 213.121094 47.761719 Z M 213.121094 47.761719 " fill-opacity="1" fill-rule="nonzero"/><path fill="#ffffff" d="M 246.121094 57.839844 C 241.558594 57.839844 237.960938 61.441406 237.960938 66 C 237.960938 67.558594 238.320312 68.878906 239.039062 70.078125 L 230.28125 78.839844 C 231.839844 79.679688 233.519531 80.519531 234.960938 81.359375 L 242.761719 73.558594 C 243.71875 73.921875 244.800781 74.160156 246 74.160156 C 250.558594 74.160156 254.160156 70.558594 254.160156 66 C 254.28125 61.558594 250.558594 57.839844 246.121094 57.839844 Z M 246.121094 57.839844 " fill-opacity="1" fill-rule="nonzero"/><path fill="#ffffff" d="M 285.960938 102.71875 C 281.398438 102.71875 277.800781 106.320312 277.800781 110.878906 C 277.800781 112.441406 278.28125 113.878906 279 115.078125 L 273 121.078125 C 273.839844 122.640625 274.558594 124.320312 275.28125 126 L 282.960938 118.320312 C 283.921875 118.679688 284.878906 118.921875 285.960938 118.921875 C 290.519531 118.921875 294.121094 115.320312 294.121094 110.761719 C 294.121094 106.441406 290.398438 102.71875 285.960938 102.71875 Z M 285.960938 102.71875 " fill-opacity="1" fill-rule="nonzero"/><path fill="#ffffff" d="M 308.640625 141.960938 C 305.039062 141.960938 301.921875 144.359375 300.839844 147.601562 L 281.640625 147.601562 C 281.878906 149.28125 282.238281 150.960938 282.359375 152.761719 L 300.839844 152.761719 C 301.921875 156 304.921875 158.398438 308.640625 158.398438 C 313.199219 158.398438 316.800781 154.800781 316.800781 150.238281 C 316.800781 145.679688 313.199219 141.960938 308.640625 141.960938 Z M 308.640625 141.960938 " fill-opacity="1" fill-rule="nonzero"/><path fill="#ffffff" d="M 320.28125 190.199219 C 316.679688 190.199219 313.558594 192.601562 312.480469 195.839844 L 297.839844 195.839844 L 301.078125 201 L 312.480469 201 C 313.558594 204.238281 316.558594 206.640625 320.28125 206.640625 C 324.839844 206.640625 328.441406 203.039062 328.441406 198.480469 C 328.441406 193.921875 324.839844 190.199219 320.28125 190.199219 Z M 320.28125 190.199219 " fill-opacity="1" fill-rule="nonzero"/><path fill="#ffffff" d="M 116.640625 241.800781 C 116.160156 240.121094 115.679688 238.441406 115.199219 236.640625 L 108.601562 236.640625 C 107.519531 233.398438 104.519531 231 100.800781 231 C 96.238281 231 92.640625 234.601562 92.640625 239.160156 C 92.640625 243.71875 96.238281 247.320312 100.800781 247.320312 C 104.398438 247.320312 107.519531 244.921875 108.601562 241.679688 L 116.640625 241.679688 Z M 116.640625 241.800781 " fill-opacity="1" fill-rule="nonzero"/><path fill="#ffffff" d="M 308.640625 212.878906 L 301.078125 200.878906 L 286.199219 200.878906 L 261.601562 176.28125 L 248.039062 176.28125 C 247.199219 177.359375 246 178.078125 244.558594 178.078125 L 235.441406 178.078125 L 235.441406 177.601562 C 234.359375 185.640625 227.398438 191.878906 219.121094 191.878906 L 214.800781 191.878906 L 214.800781 200.761719 C 214.800781 202.320312 214.078125 203.640625 212.878906 204.359375 L 212.878906 210 L 232.199219 229.320312 L 232.199219 250.558594 C 235.441406 251.640625 237.71875 254.640625 237.71875 258.238281 C 237.71875 262.800781 234.121094 266.398438 229.558594 266.398438 C 225 266.398438 221.398438 262.800781 221.398438 258.238281 C 221.398438 254.640625 223.800781 251.519531 227.039062 250.441406 L 227.039062 231.359375 L 207.71875 212.039062 L 207.71875 204.238281 C 206.519531 203.398438 205.679688 202.078125 205.679688 200.519531 L 205.679688 191.640625 L 198.71875 191.640625 L 198.71875 200.519531 C 198.71875 201.839844 198.121094 203.039062 197.160156 203.878906 L 197.160156 216.960938 L 211.800781 231.601562 C 212.878906 231 214.078125 230.761719 215.398438 230.761719 C 219.960938 230.761719 223.558594 234.359375 223.558594 238.921875 C 223.558594 243.480469 219.960938 247.078125 215.398438 247.078125 C 210.839844 247.078125 207.238281 243.480469 207.238281 238.921875 C 207.238281 237.601562 207.601562 236.28125 208.078125 235.199219 L 192 219.121094 L 192 204.359375 C 190.679688 203.640625 189.71875 202.199219 189.71875 200.519531 L 189.71875 191.640625 L 183 191.640625 L 183 200.519531 C 183 201.960938 182.28125 203.160156 181.320312 204 L 181.320312 210 L 189 217.679688 L 189 231.960938 C 192.359375 233.039062 194.761719 236.039062 194.761719 239.761719 C 194.761719 244.320312 191.160156 247.921875 186.601562 247.921875 C 182.039062 247.921875 178.441406 244.320312 178.441406 239.761719 C 178.441406 236.160156 180.71875 233.160156 183.839844 232.078125 L 183.839844 219.839844 L 176.160156 212.160156 L 176.160156 204.359375 C 174.839844 203.640625 174 202.199219 174 200.640625 L 174 191.761719 L 167.28125 191.761719 L 167.28125 200.640625 C 167.28125 202.199219 166.441406 203.640625 165.121094 204.359375 L 165.121094 222.960938 L 146.28125 241.800781 L 116.640625 241.800781 C 122.519531 262.921875 123.601562 280.800781 123.839844 287.761719 C 124.199219 300.601562 120 320.398438 120 320.398438 L 239.398438 320.398438 C 238.320312 306.480469 242.039062 299.761719 242.039062 299.761719 C 242.039062 299.761719 218.039062 300.238281 198.601562 289.441406 C 184.441406 281.640625 177.839844 266.039062 175.320312 258.238281 C 174.359375 255.359375 174 253.441406 174 253.441406 L 179.640625 253.441406 L 180.359375 256.441406 C 180.601562 257.28125 180.839844 258.121094 181.199219 258.839844 C 185.519531 271.558594 190.800781 277.320312 202.558594 285.121094 C 215.039062 293.398438 253.199219 297.480469 270 295.441406 C 286.800781 293.398438 288.121094 275.640625 288.601562 272.28125 C 289.078125 268.921875 289.679688 230.28125 289.679688 230.28125 C 295.441406 229.800781 302.039062 228.839844 302.039062 228.839844 C 317.519531 224.640625 308.640625 212.878906 308.640625 212.878906 Z M 308.640625 212.878906 " fill-opacity="1" fill-rule="nonzero"/><path fill="#ffffff" d="M 96.601562 190.078125 C 96.121094 188.398438 95.640625 186.71875 95.28125 184.921875 L 77.28125 184.921875 C 75.960938 182.28125 73.199219 180.359375 69.960938 180.359375 C 65.398438 180.359375 61.800781 183.960938 61.800781 188.519531 C 61.800781 193.078125 65.398438 196.679688 69.960938 196.679688 C 73.921875 196.679688 77.28125 193.800781 78 189.960938 L 96.601562 189.960938 Z M 96.601562 190.078125 " fill-opacity="1" fill-rule="nonzero"/><path fill="#ffffff" d="M 93.359375 155.160156 L 81.359375 155.160156 C 80.28125 151.921875 77.28125 149.519531 73.558594 149.519531 C 69 149.519531 65.398438 153.121094 65.398438 157.679688 C 65.398438 162.238281 69 165.839844 73.558594 165.839844 C 77.160156 165.839844 80.28125 163.441406 81.359375 160.199219 L 93 160.199219 C 93.121094 158.640625 93.238281 156.839844 93.359375 155.160156 Z M 93.359375 155.160156 " fill-opacity="1" fill-rule="nonzero"/><path fill="#ffffff" d="M 93.238281 121.921875 L 83.878906 121.921875 C 82.800781 118.800781 79.679688 116.519531 76.199219 116.519531 C 71.640625 116.519531 68.039062 120.121094 68.039062 124.679688 C 68.039062 129.238281 71.640625 132.839844 76.199219 132.839844 C 79.921875 132.839844 82.921875 130.441406 84 127.078125 L 91.078125 127.078125 L 97.921875 133.921875 C 98.519531 132.121094 99.121094 130.320312 99.839844 128.640625 Z M 93.238281 121.921875 " fill-opacity="1" fill-rule="nonzero"/></svg>